<svg width="1724" height="907" viewBox="0 0 1724 907" fill="none" xmlns="http://www.w3.org/2000/svg">
    <path
        d="M507.423 550.779L507.236 550.186L625.543 441.893V389.715H435.739V441.893H549.109L549.296 442.393L432.145 550.779V602.957H627.449V550.779H507.423Z"
        fill="currentColor"/>
    <path
        d="M743.972 384.748C722.08 384.748 704.237 388.049 690.446 394.652C677.598 400.406 666.777 409.888 659.384 421.866C652.312 433.922 647.872 447.339 646.354 461.234L703.945 469.326C706.028 457.057 710.195 448.361 716.444 443.237C723.549 437.878 732.303 435.17 741.193 435.582C752.882 435.582 761.361 438.706 766.628 444.955C771.85 451.204 774.505 459.859 774.505 471.263V476.95H719.132C690.945 476.95 670.696 483.199 658.385 495.696C646.073 508.194 639.927 524.691 639.948 545.187C639.948 566.183 646.093 581.806 658.385 592.054C670.676 602.302 686.134 607.394 704.757 607.332C727.861 607.332 745.633 599.385 758.067 583.493C765.415 573.726 770.659 562.546 773.473 550.655H775.565L783.503 602.833H835.687V470.701C835.687 443.393 828.492 422.241 814.097 407.244C799.701 392.246 776.325 384.748 743.972 384.748ZM762.224 547.624C753.942 554.529 743.098 557.966 729.6 557.966C718.475 557.966 710.746 556.018 706.414 552.123C704.302 550.28 702.623 547.995 701.494 545.431C700.365 542.866 699.815 540.084 699.883 537.283C699.76 534.64 700.175 532.001 701.105 529.525C702.034 527.049 703.458 524.787 705.289 522.879C707.269 521.022 709.606 519.586 712.157 518.656C714.708 517.727 717.421 517.325 720.132 517.473H774.598V521.066C774.708 526.145 773.648 531.182 771.506 535.786C769.359 540.391 766.185 544.441 762.224 547.624Z"
        fill="currentColor"/>
    <path d="M1151.24 389.715H1089.58V602.989H1151.24V389.715Z" fill="currentColor"/>
    <path
        d="M1515.25 389.715C1497.83 389.715 1484.1 395.859 1474.06 408.149C1466.86 416.981 1461.38 430.03 1457.63 447.298H1455.82L1447.75 389.715H1395.1V602.957H1456.76V493.602C1456.76 479.813 1459.98 469.242 1466.44 461.889C1472.9 454.536 1484.81 450.86 1502.19 450.86H1525.59V389.715H1515.25Z"
        fill="currentColor"/>
    <path
        d="M1333.91 396.682C1319.52 388.12 1301.36 383.85 1279.45 383.871C1244.95 383.871 1217.95 393.693 1198.45 413.335C1178.95 432.977 1169.2 460.055 1169.2 494.57C1168.71 515.437 1173.26 536.114 1182.49 554.84C1190.93 571.527 1204.07 585.376 1220.3 594.677C1236.62 604.112 1256.05 608.84 1278.58 608.861C1298.05 608.861 1314.32 605.862 1327.38 599.863C1339.66 594.476 1350.36 586.031 1358.45 575.336C1366.14 564.837 1371.86 553.021 1375.32 540.467L1322.2 525.595C1319.96 533.758 1315.65 541.205 1309.7 547.216C1303.7 553.215 1293.64 556.215 1279.54 556.215C1262.77 556.215 1250.27 551.413 1242.04 541.811C1236.07 534.875 1232.33 524.97 1230.67 512.129H1376.13C1376.73 506.13 1377.04 501.1 1377.04 497.038V483.759C1377.39 465.92 1373.71 448.233 1366.26 432.019C1359.29 417.248 1348.01 404.93 1333.91 396.682ZM1277.67 434.706C1302.67 434.706 1316.84 447.005 1320.19 471.605H1231.76C1233.17 463.397 1236.57 455.661 1241.67 449.078C1249.77 439.476 1261.77 434.685 1277.67 434.706Z"
        fill="currentColor"/>
    <path
        d="M1121.08 303.762C1116.44 303.604 1111.82 304.381 1107.49 306.044C1103.16 307.708 1099.21 310.226 1095.86 313.448C1092.57 316.701 1089.99 320.602 1088.28 324.905C1086.58 329.208 1085.79 333.818 1085.96 338.443C1085.79 343.098 1086.59 347.738 1088.3 352.072C1090 356.406 1092.58 360.343 1095.88 363.635C1099.17 366.927 1103.11 369.505 1107.45 371.207C1111.79 372.91 1116.43 373.701 1121.08 373.531C1125.71 373.705 1130.32 372.915 1134.62 371.21C1138.93 369.505 1142.83 366.922 1146.08 363.626C1149.31 360.296 1151.82 356.349 1153.48 352.021C1155.14 347.694 1155.91 343.075 1155.74 338.443C1155.95 333.839 1155.2 329.241 1153.54 324.942C1151.87 320.644 1149.33 316.74 1146.07 313.479C1142.81 310.219 1138.91 307.673 1134.61 306.005C1130.32 304.338 1125.72 303.584 1121.11 303.793L1121.08 303.762Z"
        fill="currentColor"/>
    <path
        d="M993.713 383.871C972.712 383.871 955.837 390.464 943.091 403.649C933.651 413.418 926.724 427.998 922.31 447.391H920.343L912.279 389.808H859.626V664.257H921.277V551.216H923.528C925.407 558.753 928.046 566.08 931.4 573.086C936.618 584.499 945.173 594.064 955.935 600.519C967.091 606.607 979.662 609.636 992.369 609.299C1018.18 609.299 1037.83 599.248 1051.33 579.148C1064.83 559.048 1071.58 531.001 1071.58 495.007C1071.58 460.243 1065.05 433.029 1051.99 413.366C1038.93 393.703 1019.5 383.871 993.713 383.871ZM999.962 538.405C992.773 548.82 981.525 554.027 966.211 554.027C959.902 554.319 953.608 553.102 947.861 550.478C942.108 547.853 937.066 543.897 933.154 538.936C925.172 528.918 921.195 515.201 921.217 497.788V493.726C921.217 476.041 925.194 462.502 933.154 453.108C941.108 443.714 952.133 439.069 966.211 439.173C981.798 439.173 993.117 444.12 1000.18 454.014C1007.24 463.908 1010.77 477.708 1010.77 495.413C1010.82 513.722 1007.23 528.053 1000.02 538.405H999.962Z"
        fill="currentColor"/>
    <path d="M408.302 550.779H195V603.02H408.302V550.779Z" fill="#FF4F00"/>
</svg>